<svg xmlns="http://www.w3.org/2000/svg" width="500px" height="362.312px" viewBox="0 0 500 362.312" enable-background="new 0 0 500 362.312" xml:space="preserve">
					<path fill="#282627" d="M61.137,348.438h-6.886c-0.081,0-0.157,0.017-0.23,0.045c-0.072,0.027-0.169,0.091-0.29,0.185
						l-0.472,0.327l-0.144-0.065l1.534-2.577H71.9l-1.619,2.643h-0.12v-0.24c0-0.095-0.036-0.171-0.109-0.229
						s-0.168-0.088-0.291-0.088h-6.1v12.536c0,0.102,0.01,0.183,0.03,0.24c0.02,0.059,0.059,0.112,0.115,0.162l0.315,0.272v0.151
						h-3.48v-0.151l0.314-0.272c0.065-0.05,0.111-0.108,0.139-0.173s0.042-0.142,0.042-0.229V348.438z"/>
					<path fill="#282627" d="M75.115,361.8h-3.662l10.836-15.981L93.053,361.8h-3.707v-0.151c0.16,0,0.285-0.028,0.379-0.088
						c0.093-0.057,0.138-0.132,0.138-0.227c0-0.066-0.009-0.126-0.029-0.181c-0.021-0.054-0.044-0.094-0.067-0.124l-3.649-5.393
						h-5.267c-0.249,0-0.414,0.005-0.494,0.015c-0.081,0.013-0.137,0.035-0.169,0.071l-0.351,0.263l-0.122-0.088l1.536-2.382h3.417
						l-2.378-3.532l-7.6,11.034c-0.031,0.044-0.055,0.094-0.072,0.146c-0.016,0.056-0.024,0.113-0.024,0.171
						c0,0.095,0.046,0.17,0.139,0.227c0.094,0.06,0.22,0.088,0.382,0.088V361.8z"/>
					<path fill="#282627" d="M94.891,360.974v-13.828c0-0.073-0.014-0.14-0.044-0.201c-0.026-0.063-0.073-0.118-0.137-0.169
						l-0.29-0.271v-0.152h3.454v0.152l-0.29,0.271c-0.064,0.058-0.108,0.114-0.133,0.169c-0.024,0.055-0.036,0.121-0.036,0.201
						v13.828c0,0.088,0.014,0.165,0.041,0.229c0.029,0.064,0.071,0.123,0.128,0.173l0.29,0.272v0.151H94.42v-0.151l0.29-0.272
						c0.064-0.05,0.111-0.108,0.137-0.173C94.877,361.139,94.891,361.062,94.891,360.974z"/>
					<path fill="#282627" d="M109.882,348.438c-1.023,0-1.872,0.086-2.548,0.251c-0.677,0.168-1.249,0.425-1.716,0.774
						c-0.74,0.563-1.301,1.235-1.679,2.014c-0.378,0.781-0.568,1.646-0.568,2.595c0,1.008,0.185,1.893,0.556,2.657
						c0.37,0.766,0.926,1.408,1.667,1.93c0.523,0.371,1.106,0.633,1.744,0.789c0.642,0.156,1.521,0.232,2.641,0.232h7.441
						c0.106,0,0.197-0.015,0.277-0.043c0.083-0.028,0.169-0.079,0.267-0.151l0.471-0.358h0.206l-1.62,2.673h-7.042
						c-1.627,0-2.888-0.123-3.787-0.374c-0.899-0.25-1.742-0.67-2.531-1.257c-0.967-0.71-1.697-1.562-2.194-2.561
						c-0.493-0.995-0.742-2.106-0.742-3.332c0-0.949,0.143-1.84,0.427-2.673c0.288-0.833,0.712-1.599,1.275-2.295
						c0.396-0.486,0.846-0.921,1.354-1.307c0.507-0.381,1.063-0.712,1.667-0.987c0.531-0.239,1.103-0.408,1.715-0.511
						c0.612-0.102,1.519-0.152,2.718-0.152h8.529l-1.607,2.643h-0.121l0.024-0.196v-0.044c0-0.095-0.04-0.171-0.121-0.229
						c-0.081-0.058-0.181-0.088-0.301-0.088H109.882z"/>
					<path fill="#282627" d="M121.272,360.974v-13.828c0-0.08-0.012-0.146-0.036-0.201c-0.024-0.055-0.069-0.111-0.133-0.169
						l-0.315-0.271v-0.152h3.48v0.152l-0.314,0.271c-0.064,0.051-0.11,0.105-0.138,0.169c-0.03,0.062-0.043,0.128-0.043,0.201
						v13.828c0,0.088,0.013,0.165,0.043,0.229c0.028,0.064,0.074,0.123,0.138,0.173l0.314,0.272v0.151h-3.48v-0.151l0.315-0.272
						c0.057-0.05,0.098-0.108,0.127-0.173S121.272,361.062,121.272,360.974z M133.305,360.974v-6.718h-8.118
						c-0.097,0-0.181,0.011-0.254,0.038c-0.072,0.025-0.16,0.077-0.266,0.156l-0.47,0.359l-0.145-0.065l1.534-2.609h7.719v-4.989
						c0-0.073-0.013-0.14-0.042-0.201c-0.029-0.063-0.075-0.118-0.14-0.169l-0.315-0.271v-0.152h3.492v0.152l-0.326,0.271
						c-0.057,0.044-0.095,0.094-0.115,0.152c-0.02,0.057-0.03,0.129-0.03,0.218v13.828c0,0.102,0.012,0.184,0.036,0.245
						c0.025,0.063,0.061,0.115,0.109,0.157l0.326,0.272v0.151h-3.492v-0.151l0.315-0.272c0.064-0.05,0.111-0.108,0.14-0.173
						C133.292,361.139,133.305,361.062,133.305,360.974z"/>
					<path fill="#282627" d="M152.285,357.659v-10.513c-0.008-0.08-0.024-0.146-0.048-0.201c-0.023-0.055-0.069-0.111-0.132-0.169
						l-0.291-0.271v-0.152h3.455v0.152l-0.289,0.271c-0.064,0.051-0.11,0.105-0.134,0.162c-0.024,0.06-0.039,0.128-0.049,0.208
						v11.209c0,1.231-0.6,2.16-1.799,2.784c-1.2,0.623-3,0.934-5.401,0.934c-2.392,0-4.19-0.311-5.395-0.934
						c-1.203-0.624-1.805-1.553-1.805-2.784v-11.209c0-0.08-0.012-0.146-0.036-0.201c-0.024-0.055-0.069-0.111-0.133-0.169
						l-0.29-0.271v-0.152h3.456v0.152l-0.29,0.271c-0.064,0.051-0.11,0.105-0.138,0.169c-0.029,0.062-0.043,0.128-0.043,0.201
						v10.513c0,0.871,0.335,1.478,1.003,1.822c0.668,0.343,1.884,0.516,3.648,0.516c1.797,0,3.03-0.17,3.704-0.511
						C151.948,359.145,152.285,358.536,152.285,357.659z"/>
					<path fill="#282627" d="M171.286,357.083v-9.938c-0.01-0.08-0.025-0.146-0.049-0.201c-0.023-0.055-0.068-0.111-0.132-0.169
						l-0.315-0.271v-0.152h3.238v0.152l-0.302,0.271c-0.057,0.051-0.099,0.105-0.128,0.169c-0.027,0.062-0.041,0.128-0.041,0.201
						v15.166l-12.045-11.066v9.729c0,0.088,0.014,0.165,0.043,0.229c0.028,0.064,0.068,0.123,0.126,0.173l0.29,0.272v0.151h-3.237
						v-0.151l0.326-0.272c0.057-0.05,0.099-0.108,0.128-0.173c0.027-0.064,0.041-0.142,0.041-0.229v-15.155L171.286,357.083z"/>
					<path fill="#282627" d="M185.613,348.438c-1.023,0-1.872,0.086-2.548,0.251c-0.677,0.168-1.248,0.425-1.716,0.774
						c-0.739,0.563-1.3,1.235-1.678,2.014c-0.379,0.781-0.568,1.646-0.568,2.595c0,1.008,0.185,1.893,0.556,2.657
						c0.371,0.766,0.927,1.408,1.667,1.93c0.522,0.371,1.106,0.633,1.745,0.789c0.642,0.156,1.521,0.232,2.641,0.232h4.059v-5.381
						h-5.423c-0.107,0-0.197,0.015-0.278,0.043c-0.082,0.029-0.169,0.079-0.267,0.152l-0.471,0.358l-0.145-0.086l1.559-2.587h7.538
						v8.794c0,0.088,0.015,0.165,0.048,0.229s0.076,0.123,0.133,0.173l0.289,0.272v0.151h-7.042c-1.627,0-2.889-0.123-3.787-0.374
						c-0.899-0.25-1.742-0.67-2.532-1.257c-0.966-0.71-1.696-1.562-2.193-2.561c-0.494-0.995-0.742-2.106-0.742-3.332
						c0-0.949,0.143-1.84,0.427-2.673c0.287-0.833,0.711-1.599,1.275-2.295c0.396-0.486,0.846-0.921,1.353-1.307
						c0.508-0.381,1.063-0.712,1.667-0.987c0.532-0.239,1.103-0.408,1.716-0.511c0.612-0.102,1.519-0.152,2.717-0.152h6.451
						l-1.606,2.643h-0.146l0.025-0.196v-0.044c0-0.095-0.041-0.171-0.121-0.229c-0.081-0.058-0.182-0.088-0.302-0.088H185.613z"/>
					<path fill="#282627" d="M212.035,348.438c-1.023,0-1.873,0.086-2.549,0.251c-0.676,0.168-1.248,0.425-1.715,0.774
						c-0.741,0.563-1.302,1.235-1.679,2.014c-0.378,0.781-0.568,1.646-0.568,2.595c0,1.008,0.185,1.893,0.556,2.657
						c0.37,0.766,0.926,1.408,1.667,1.93c0.522,0.371,1.106,0.633,1.744,0.789c0.642,0.156,1.521,0.232,2.641,0.232h7.442
						c0.106,0,0.197-0.015,0.278-0.043s0.168-0.079,0.266-0.151l0.471-0.358h0.206l-1.618,2.673h-7.044
						c-1.627,0-2.888-0.123-3.786-0.374c-0.899-0.25-1.743-0.67-2.532-1.257c-0.967-0.71-1.697-1.562-2.193-2.561
						c-0.494-0.995-0.742-2.106-0.742-3.332c0-0.949,0.143-1.84,0.428-2.673c0.287-0.833,0.711-1.599,1.276-2.295
						c0.395-0.486,0.845-0.921,1.353-1.307c0.507-0.381,1.063-0.712,1.667-0.987c0.532-0.239,1.104-0.408,1.715-0.511
						c0.614-0.102,1.519-0.152,2.719-0.152h8.529l-1.607,2.643h-0.12l0.023-0.196v-0.044c0-0.095-0.04-0.171-0.121-0.229
						c-0.081-0.058-0.181-0.088-0.302-0.088H212.035z"/>
					<path fill="#282627" d="M223.534,360.974v-13.828c0-0.073-0.014-0.14-0.044-0.201c-0.027-0.063-0.074-0.118-0.139-0.169
						l-0.289-0.271v-0.152h3.455v0.152l-0.29,0.271c-0.064,0.058-0.109,0.114-0.133,0.169c-0.024,0.055-0.036,0.121-0.036,0.201
						v13.828c0,0.088,0.014,0.165,0.042,0.229c0.029,0.064,0.071,0.123,0.128,0.173l0.29,0.272v0.151h-3.455v-0.151l0.289-0.272
						c0.064-0.05,0.111-0.108,0.139-0.173C223.52,361.139,223.534,361.062,223.534,360.974z"/>
					<path fill="#282627" d="M236.52,348.438h-6.886c-0.082,0-0.157,0.017-0.229,0.045c-0.072,0.027-0.169,0.091-0.29,0.185
						l-0.471,0.327l-0.145-0.065l1.534-2.577h17.251l-1.617,2.643h-0.121v-0.24c0-0.095-0.038-0.171-0.111-0.229
						c-0.071-0.058-0.169-0.088-0.289-0.088h-6.099v12.536c0,0.102,0.01,0.183,0.027,0.24c0.021,0.059,0.058,0.112,0.117,0.162
						l0.315,0.272v0.151h-3.48v-0.151l0.313-0.272c0.064-0.05,0.111-0.108,0.141-0.173c0.027-0.064,0.041-0.142,0.041-0.229V348.438
						z"/>
					<path fill="#282627" d="M254.304,360.974v-5.924l-7.465-8.698h3.986v0.152l-0.255,0.194c-0.031,0.035-0.059,0.078-0.083,0.126
						c-0.025,0.047-0.038,0.088-0.038,0.125c0,0.116,0.133,0.325,0.401,0.632c0.037,0.043,0.071,0.078,0.096,0.109l4.53,5.313
						l4.275-5.313c0.017-0.024,0.048-0.064,0.096-0.122c0.253-0.283,0.377-0.489,0.377-0.619c0-0.037-0.014-0.078-0.039-0.125
						c-0.023-0.048-0.051-0.091-0.081-0.126l-0.232-0.194v-0.152h3.914l-6.957,8.501v6.121c0,0.088,0.012,0.165,0.04,0.229
						c0.03,0.064,0.075,0.123,0.142,0.173l0.29,0.272v0.151h-3.468v-0.151l0.303-0.272c0.056-0.05,0.097-0.108,0.124-0.173
						C254.292,361.139,254.304,361.062,254.304,360.974z"/>
					<path fill="#282627" d="M280.891,348.438c-1.021,0-1.871,0.086-2.547,0.251c-0.677,0.168-1.249,0.425-1.716,0.774
						c-0.742,0.563-1.3,1.235-1.68,2.014c-0.376,0.781-0.566,1.646-0.566,2.595c0,1.008,0.183,1.893,0.556,2.657
						c0.369,0.766,0.925,1.408,1.667,1.93c0.521,0.371,1.105,0.633,1.743,0.789c0.642,0.156,1.521,0.232,2.64,0.232h4.061v-5.381
						h-5.424c-0.106,0-0.197,0.015-0.278,0.043c-0.08,0.029-0.17,0.079-0.267,0.152l-0.469,0.358l-0.146-0.086l1.557-2.587h7.539
						v8.794c0,0.088,0.017,0.165,0.046,0.229c0.035,0.064,0.077,0.123,0.137,0.173l0.29,0.272v0.151h-7.046
						c-1.625,0-2.889-0.123-3.786-0.374c-0.897-0.25-1.743-0.67-2.53-1.257c-0.966-0.71-1.698-1.562-2.193-2.561
						c-0.495-0.995-0.743-2.106-0.743-3.332c0-0.949,0.146-1.84,0.429-2.673c0.287-0.833,0.71-1.599,1.276-2.295
						c0.394-0.486,0.845-0.921,1.353-1.307c0.509-0.381,1.063-0.712,1.668-0.987c0.531-0.239,1.1-0.408,1.715-0.511
						c0.61-0.102,1.52-0.152,2.716-0.152h6.452l-1.606,2.643h-0.144l0.023-0.196v-0.044c0-0.095-0.041-0.171-0.119-0.229
						c-0.084-0.058-0.185-0.088-0.306-0.088H280.891z"/>
					<path fill="#282627" d="M300.148,346.079c1.298,0,2.502,0.167,3.617,0.497c1.118,0.329,2.075,0.803,2.872,1.418
						c1.038,0.797,1.822,1.708,2.347,2.733c0.528,1.027,0.794,2.142,0.794,3.345c0,1.196-0.266,2.306-0.798,3.333
						c-0.529,1.024-1.315,1.932-2.343,2.723c-0.81,0.629-1.768,1.114-2.883,1.445c-1.115,0.334-2.315,0.5-3.606,0.5
						c-1.28,0-2.479-0.166-3.593-0.5c-1.115-0.331-2.075-0.816-2.883-1.445c-1.039-0.783-1.821-1.687-2.35-2.708
						c-0.525-1.021-0.79-2.138-0.79-3.348c0-1.196,0.265-2.309,0.798-3.338c0.529-1.03,1.314-1.943,2.342-2.74
						c0.797-0.615,1.754-1.089,2.868-1.418C297.66,346.246,298.861,346.079,300.148,346.079z M300.148,348.157
						c-2.054,0-3.729,0.553-5.024,1.656c-1.296,1.108-1.945,2.525-1.945,4.259c0,1.738,0.649,3.161,1.945,4.267
						c1.296,1.104,2.971,1.658,5.024,1.658s3.731-0.554,5.031-1.658c1.304-1.105,1.952-2.528,1.952-4.267
						c0-1.733-0.648-3.15-1.952-4.259C303.879,348.709,302.202,348.157,300.148,348.157z"/>
					<path fill="#282627" d="M319.308,357.571l5.688-9.894c0.091-0.158,0.156-0.297,0.201-0.413
						c0.045-0.114,0.064-0.207,0.064-0.271c0-0.05-0.009-0.098-0.03-0.143c-0.018-0.042-0.049-0.083-0.09-0.118l-0.243-0.228v-0.152
						h3.553l-9.167,15.96l-9.158-15.96h3.708v0.152l-0.218,0.194c-0.049,0.045-0.086,0.093-0.112,0.143
						c-0.027,0.052-0.043,0.094-0.043,0.13c0,0.066,0.024,0.163,0.073,0.293c0.048,0.133,0.117,0.272,0.203,0.427L319.308,357.571z"
						/>
					<path fill="#282627" d="M337.936,348.438c-1.022,0-1.871,0.086-2.548,0.251c-0.676,0.168-1.248,0.425-1.715,0.774
						c-0.743,0.563-1.301,1.235-1.681,2.014c-0.378,0.781-0.567,1.646-0.567,2.595c0,1.008,0.184,1.893,0.557,2.657
						c0.369,0.766,0.925,1.408,1.667,1.93c0.521,0.371,1.104,0.633,1.743,0.789c0.643,0.156,1.521,0.232,2.64,0.232h7.442
						c0.106,0,0.197-0.015,0.279-0.043c0.08-0.028,0.17-0.079,0.266-0.151l0.47-0.358h0.207l-1.618,2.673h-7.046
						c-1.625,0-2.889-0.123-3.785-0.374c-0.898-0.25-1.743-0.67-2.531-1.257c-0.966-0.71-1.698-1.562-2.195-2.561
						c-0.492-0.995-0.741-2.106-0.741-3.332c0-0.949,0.146-1.84,0.428-2.673c0.286-0.833,0.711-1.599,1.278-2.295
						c0.392-0.486,0.845-0.921,1.353-1.307c0.506-0.381,1.063-0.712,1.666-0.987c0.532-0.239,1.102-0.408,1.716-0.511
						c0.611-0.102,1.52-0.152,2.717-0.152h8.528l-1.604,2.643h-0.121l0.025-0.196v-0.044c0-0.095-0.043-0.171-0.122-0.229
						c-0.083-0.058-0.183-0.088-0.303-0.088H337.936z M332.041,354.385l1.038-2.119h11.829l-1.583,2.676h-0.146l0.023-0.218v-0.045
						c0-0.086-0.037-0.156-0.113-0.211c-0.075-0.054-0.18-0.083-0.308-0.083H332.041z"/>
					<path fill="#282627" d="M358.482,346.352c1.161,0,2.151,0.301,2.966,0.903c0.818,0.601,1.332,1.404,1.543,2.411l-4.324,2.871
						c2.084,0.29,3.74,1.186,4.962,2.688c1.227,1.499,1.836,3.388,1.836,5.663v0.912h-2.995v-0.151l0.327-0.272
						c0.056-0.05,0.099-0.108,0.125-0.173c0.031-0.064,0.045-0.142,0.045-0.229v-0.488c0-1.819-0.624-3.323-1.868-4.512
						c-1.245-1.19-2.816-1.782-4.717-1.782c-0.241,0-0.498,0.007-0.773,0.025c-0.272,0.019-0.567,0.045-0.88,0.082l4.576-3.229
						c0.339-0.246,0.573-0.458,0.7-0.637c0.132-0.177,0.193-0.374,0.193-0.592c0-0.435-0.202-0.775-0.613-1.026
						s-0.984-0.377-1.716-0.377h-6.017v12.536c0,0.088,0.014,0.165,0.042,0.229c0.027,0.064,0.075,0.123,0.139,0.173l0.289,0.272
						v0.151h-3.455v-0.151l0.291-0.272c0.059-0.05,0.098-0.108,0.128-0.173c0.026-0.064,0.039-0.142,0.039-0.229v-13.828
						c0-0.08-0.01-0.146-0.035-0.201c-0.022-0.055-0.068-0.111-0.132-0.169l-0.291-0.271v-0.152H358.482z"/>
					<path fill="#282627" d="M380.243,357.083v-9.938c-0.008-0.08-0.024-0.146-0.049-0.201c-0.025-0.055-0.07-0.111-0.132-0.169
						l-0.314-0.271v-0.152h3.237v0.152l-0.305,0.271c-0.053,0.051-0.096,0.105-0.127,0.169c-0.027,0.062-0.039,0.128-0.039,0.201
						v15.166l-12.044-11.066v9.729c0,0.088,0.013,0.165,0.042,0.229c0.027,0.064,0.069,0.123,0.126,0.173l0.291,0.272v0.151h-3.237
						v-0.151l0.324-0.272c0.059-0.05,0.101-0.108,0.129-0.173c0.025-0.064,0.04-0.142,0.04-0.229v-15.155L380.243,357.083z"/>
					<path fill="#282627" d="M395.9,357.703l6.087-11.884l4.726,15.981h-3.142v-0.151l0.301-0.272
						c0.043-0.035,0.077-0.085,0.104-0.151c0.027-0.066,0.042-0.135,0.042-0.207c0-0.036-0.007-0.091-0.025-0.162
						c-0.014-0.073-0.038-0.156-0.073-0.251l-2.619-9.089l-5.522,10.796l-5.76-10.688l-2.407,8.972
						c-0.023,0.078-0.041,0.152-0.055,0.217c-0.01,0.065-0.016,0.127-0.016,0.185c0,0.079,0.013,0.153,0.036,0.218
						c0.025,0.066,0.06,0.12,0.108,0.162l0.277,0.272v0.151h-3.115l4.794-15.981L395.9,357.703z"/>
					<path fill="#282627" d="M417.135,348.438c-1.021,0-1.87,0.086-2.547,0.251c-0.676,0.168-1.249,0.425-1.716,0.774
						c-0.741,0.563-1.302,1.235-1.681,2.014c-0.377,0.781-0.567,1.646-0.567,2.595c0,1.008,0.184,1.893,0.558,2.657
						c0.368,0.766,0.924,1.408,1.666,1.93c0.521,0.371,1.105,0.633,1.743,0.789c0.643,0.156,1.522,0.232,2.641,0.232h7.441
						c0.107,0,0.197-0.015,0.28-0.043c0.079-0.028,0.169-0.079,0.265-0.151l0.47-0.358h0.207l-1.618,2.673h-7.045
						c-1.627,0-2.888-0.123-3.786-0.374c-0.898-0.25-1.743-0.67-2.53-1.257c-0.967-0.71-1.698-1.562-2.196-2.561
						c-0.492-0.995-0.74-2.106-0.74-3.332c0-0.949,0.145-1.84,0.427-2.673c0.286-0.833,0.713-1.599,1.278-2.295
						c0.393-0.486,0.845-0.921,1.353-1.307c0.506-0.381,1.062-0.712,1.666-0.987c0.532-0.239,1.102-0.408,1.716-0.511
						c0.611-0.102,1.52-0.152,2.717-0.152h8.529l-1.604,2.643h-0.122l0.023-0.196v-0.044c0-0.095-0.04-0.171-0.119-0.229
						c-0.084-0.058-0.184-0.088-0.305-0.088H417.135z M411.239,354.385l1.04-2.119h11.827l-1.583,2.676h-0.145l0.024-0.218v-0.045
						c0-0.086-0.039-0.156-0.114-0.211c-0.077-0.054-0.18-0.083-0.308-0.083H411.239z"/>
					<path fill="#282627" d="M440.413,357.083v-9.938c-0.006-0.08-0.024-0.146-0.049-0.201c-0.023-0.055-0.068-0.111-0.13-0.169
						l-0.315-0.271v-0.152h3.238v0.152l-0.304,0.271c-0.056,0.051-0.098,0.105-0.129,0.169c-0.025,0.062-0.04,0.128-0.04,0.201
						v15.166l-12.043-11.066v9.729c0,0.088,0.014,0.165,0.041,0.229c0.028,0.064,0.069,0.123,0.129,0.173l0.288,0.272v0.151h-3.236
						v-0.151l0.323-0.272c0.06-0.05,0.102-0.108,0.129-0.173s0.04-0.142,0.04-0.229v-15.155L440.413,357.083z"/>
					<path fill="#282627" d="M452.734,348.438h-6.885c-0.081,0-0.154,0.017-0.228,0.045c-0.072,0.027-0.17,0.091-0.29,0.185
						l-0.474,0.327l-0.144-0.065l1.535-2.577H463.5l-1.619,2.643h-0.121v-0.24c0-0.095-0.038-0.171-0.11-0.229
						s-0.169-0.088-0.29-0.088h-6.099v12.536c0,0.102,0.01,0.183,0.027,0.24c0.021,0.059,0.06,0.112,0.117,0.162l0.315,0.272v0.151
						h-3.479v-0.151l0.314-0.272c0.062-0.05,0.108-0.108,0.138-0.173c0.027-0.064,0.04-0.142,0.04-0.229V348.438z"/>
				<path fill="#008DCF" d="M96.171,259.224h72.994c0,0,60.709-59.346,163.03-34.792C332.195,224.432,227.82,167.819,96.171,259.224
					z"/>
				<path fill="#E23C1B" d="M257.835,0c0,0,53.209,118.696,242.165,173.267H372.442c0,0-0.008,51.839,108.457,105.734
					c0,0-130.289-22.515-166.443-123.473h61.396C375.852,155.528,270.793,87.307,257.835,0z"/>
				<path fill="#EC6616" d="M199.87,70.271c0,0,16.374,16.363,23.188,20.457c0,0,29.338-27.958,34.112-58.656
					C257.169,32.072,231.248,74.361,199.87,70.271z"/>
				<path fill="#F6A808" d="M176.675,60.04c0,0,47.065,66.163,103.686,79.124h-59.347
					C221.014,139.164,182.812,118.016,176.675,60.04z"/>
				<path fill="#9DC63B" d="M167.128,51.165c0,0-36.155,91.409-167.128,142.569l111.192-16.372c0,0-6.823,49.799-83.227,81.862
					c0,0,100.961-8.185,129.609-88.683l109.819-15.007H114.603C114.603,155.535,163.034,109.832,167.128,51.165z"/>
				<path fill="#282627" d="M211.583,290.38c-3.487-2.388-5.582-3.583-6.278-3.583c-0.476,0-1.602,0.813-3.345,2.39
					c-4.265,0.021-8.575,0.249-12.646,0.682v-7.776c0-0.107,0.542-0.465,1.627-1.072c0.311-0.176,0.466-0.427,0.466-0.748
					c0-0.64-3.469-1.301-10.408-1.979c0.272,2.032,0.408,4.938,0.408,8.717l0.001,4.021c-5.225,1.018-9.513,2.448-11.976,4.269
					v-5.516c-2.687-0.703-5.438-1.363-8.261-1.97c0.31,2.282,0.465,5.134,0.465,8.559v3.528c0,0.928-0.099,4.778-0.292,11.552v0.055
					c0,0.677,0.95,1.017,2.848,1.017c3.489,0,5.234-0.553,5.234-1.658v-2.622h11.979v9.093c0,0.608-0.08,3.978-0.234,10.108v0.054
					c0,0.679,0.736,1.017,2.21,1.017c4.108,0,6.162-0.515,6.162-1.551c-0.155-5.063-0.231-7.934-0.231-8.61v-10.11h12.5v3.157
					c0,0.712,0.854,1.068,2.558,1.068c3.723,0,5.584-0.569,5.584-1.711c-0.155-6.739-0.234-10.447-0.234-11.124v-6.045
					c0-0.142,0.583-0.73,1.745-1.766c0.347-0.213,0.524-0.463,0.524-0.748S211.856,290.558,211.583,290.38z M169.434,306.909v-9.853
					c1.819-1.699,6.025-3.341,11.976-4.538l0.002,14.391H169.434z M189.309,306.909v-15.565h0.006v-0.02
					c3.79-0.408,7.984-0.652,12.495-0.677v16.262H189.309z"/>
				<path fill="#282627" d="M100.682,303.056c0.078,0.393,0.116,0.856,0.116,1.392c0,3.744-1.609,5.616-4.826,5.616
					c-2.327,0-3.488-0.981-3.488-2.942c0-1.319,0.696-2.28,2.093-2.887c2.519-1.141,3.876-2.996,4.07-5.563l1.046-0.053
					c0.426,1.426,0.697,2.478,0.814,3.154h36.865c2.091-1.924,3.411-2.889,3.952-2.889c0.621,0,2.405,1.213,5.353,3.637
					c0.075,0.037,0.134,0.072,0.171,0.109c0.195,0.176,0.292,0.427,0.292,0.747c0,0.5-0.251,0.785-0.757,0.857
					c-1.239,0.106-1.918,0.213-2.032,0.319c-1.784,1.891-3.704,3.512-5.757,4.867l-0.989-0.482c0.116-0.961,0.193-1.94,0.232-2.941
					c0-0.286,0-0.605,0-0.963c0-0.748-0.021-1.408-0.058-1.979H100.682z M136.267,326.055c2.714-3.138,4.224-4.706,4.536-4.706
					c0.426,0,1.588,0.817,3.488,2.46c1.899,1.605,2.849,2.567,2.849,2.887c0,0.392-0.135,0.59-0.406,0.59h-42.039
					c-4.498,0-7.774,0.125-9.828,0.374l-1.221-2.194c2.481,0.396,6.455,0.59,11.92,0.59h10.234v-4.975h-6.513
					c-4.495,0-7.772,0.142-9.825,0.428l-1.221-2.192c2.48,0.357,6.454,0.536,11.919,0.536h5.64v-3.799
					c-3.527,0.571-7.326,0.929-11.396,1.07c-0.116,0-0.292,0.357-0.523,1.069c-0.156,0.357-0.39,0.535-0.699,0.535
					c-0.466,0-1.279-2.585-2.441-7.756c2.75,0.499,5.563,0.821,8.431,0.963c0.738-0.998,1.26-2.354,1.568-4.065
					c-3.76,0-6.356,0.108-7.789,0.322l-1.048-2.085c2.325,0.319,5.426,0.48,9.303,0.48h15.758c2.401-2.246,3.723-3.37,3.955-3.37
					c0.426,0,1.493,0.588,3.197,1.765c1.705,1.212,2.559,1.962,2.559,2.246c0,0.394-0.195,0.59-0.582,0.59h-16.338
					c-1.279,0.963-2.928,1.907-4.944,2.833c-2.015,0.892-3.198,1.337-3.548,1.337c0.505,0.108,3.122,0.161,7.852,0.161
					c3.837,0,8.314-0.143,13.431-0.429c-1.551-1.175-2.831-1.977-3.837-2.405l0.29-0.535c0.039,0,0.098,0,0.175,0
					c7.52,0,11.281,1.641,11.281,4.921c0,2.032-0.95,3.046-2.85,3.046c-0.853,0-1.609-0.532-2.27-1.602
					c-0.93-1.641-1.568-2.461-1.917-2.461c-2.946,0.892-6.223,1.729-9.827,2.513v4.546h5.466c2.597-2.852,4.05-4.277,4.361-4.277
					c0.387,0,1.491,0.731,3.313,2.192c1.822,1.462,2.734,2.354,2.734,2.676c0,0.392-0.137,0.587-0.408,0.587h-15.583v4.92
					L136.267,326.055z M109.927,290.113c-4.498,0-7.773,0.125-9.828,0.376l-1.162-2.193c2.441,0.354,6.396,0.533,11.86,0.533h4.885
					v-3.69h-10c-4.457,0-7.735,0.127-9.827,0.376l-1.163-2.192c2.441,0.356,6.415,0.534,11.918,0.534h9.071c0-0.071,0-0.195,0-0.374
					c0-1.355-0.097-2.799-0.289-4.332c6.626,0.571,9.941,1.176,9.941,1.817c0,0.286-0.193,0.5-0.581,0.643
					c-0.967,0.321-1.454,0.572-1.454,0.747v1.499h12.035c2.637-2.781,4.071-4.171,4.306-4.171c0.349,0,1.453,0.749,3.313,2.246
					c1.862,1.497,2.792,2.353,2.792,2.566c0,0.429-0.194,0.641-0.582,0.641h-21.864v3.69h7.909c2.597-2.388,3.991-3.583,4.187-3.583
					c0.308,0,1.395,0.659,3.256,1.98c1.82,1.283,2.732,2.05,2.732,2.298c0,0.393-0.214,0.589-0.642,0.589H109.927z M138.244,295.623
					c0,0.785,0.02,1.623,0.058,2.515v1.017c0,0.818-1.784,1.228-5.351,1.228c-1.395,0-2.091-0.284-2.091-0.855v-0.801h-21.689v0.801
					c0,0.714-1.648,1.071-4.942,1.071c-1.744,0-2.616-0.357-2.616-1.071c0.036-1.068,0.057-2.495,0.057-4.277
					c0-1.142-0.096-2.584-0.291-4.333c2.054,0.322,4.709,0.929,7.967,1.819h20.989c1.977-1.57,3.158-2.354,3.548-2.354
					c0.387,0,1.472,0.465,3.257,1.392c1.781,0.893,2.673,1.498,2.673,1.817c0,0.323-0.195,0.608-0.583,0.855
					c-0.697,0.43-1.045,0.662-1.045,0.694L138.244,295.623z M130.86,293.963h-21.689v3.477h21.689V293.963z"/>
				<path fill="#282627" d="M236.55,288.829c-4.65,0-7.81,0.109-9.475,0.321l-1.107-2.3c2.792,0.356,6.958,0.535,12.501,0.535
					h30.352c2.21-2.531,3.666-4.208,4.359-5.028c0.117-0.141,0.312-0.213,0.584-0.213c0.35,0,1.607,0.909,3.78,2.728
					c2.133,1.819,3.195,2.87,3.195,3.156c0,0.499-0.231,0.749-0.697,0.749L236.55,288.829z M275.217,314.075
					c0,3.352-2.696,5.544-8.084,6.579l-0.054,0.053c-0.509,0.073-0.875,0.106-1.105,0.106c-0.659,0-1.008-0.284-1.05-0.854
					c-0.192-2.391-0.697-3.868-1.509-4.438c-0.779-0.535-1.9-1-3.373-1.393l0.175-1.069c1.511,0.105,3.158,0.16,4.941,0.16
					c0.312,0,0.639,0,0.987,0c0.815,0,1.224-0.373,1.224-1.123v-12.354h-9.71v16.687c0,2.497,0.035,6.08,0.114,10.749
					c0,0.68-1.454,1.127-4.359,1.339h-0.06c-0.931,0.072-1.609,0.107-2.036,0.107c-1.473,0-2.209-0.338-2.209-1.016
					c0.08-5.422,0.117-9.502,0.117-12.249v-15.617h-9.071v12.891c0,0.89,0.04,3.671,0.115,8.343c0,0.928-2.014,1.39-6.046,1.39
					c-1.435,0-2.152-0.338-2.152-1.015c0.078-5.421,0.117-8.576,0.117-9.466v-6.473c0-4.991-0.097-8.219-0.29-9.681
					c1.86,0.463,3.371,0.891,4.535,1.284c1.434,0.498,2.829,0.963,4.184,1.389h8.608c0-0.104,0-0.284,0-0.534
					c0-3.424-0.155-6.097-0.465-8.023c3.1,0.465,5.715,0.875,7.849,1.23c2.17,0.322,3.259,0.679,3.259,1.07
					c0,0.32-0.254,0.589-0.761,0.802c-0.966,0.5-1.449,0.841-1.449,1.017v4.387h8.893c2.677-2.248,4.188-3.37,4.537-3.37
					c0.348,0,1.532,0.66,3.545,1.979c1.977,1.32,2.968,2.14,2.968,2.459c0,0.252-0.153,0.482-0.465,0.698
					c-1.281,0.854-1.92,1.408-1.92,1.656V314.075z M244.458,279.096l0.291-0.854c0.658-0.038,1.472-0.055,2.44-0.055
					c7.327,0,10.991,1.782,10.991,5.347c0,2.533-1.378,3.799-4.129,3.799c-1.859,0-3.103-0.784-3.72-2.353
					C248.976,281.878,247.014,279.917,244.458,279.096z"/>
				<path fill="#282627" d="M320.591,300.436h-6.281v15.726c2.635-0.429,5.371-1.053,8.196-1.874l0.354,0.964
					c-7.754,5.242-16.029,8.877-24.827,10.91c-0.081,0.036-0.173,0.516-0.29,1.445c-0.079,0.533-0.312,0.803-0.701,0.803
					c-0.617,0-2.033-3.212-4.242-9.63c1.63,0,3.007-0.069,4.129-0.213v-14.762c0-4.171-0.194-7.522-0.583-10.056
					c5.815,0.821,8.721,1.464,8.721,1.928c0,0.283-0.192,0.498-0.578,0.64c-0.736,0.322-1.105,0.571-1.105,0.749v20.807
					c1.663-0.215,2.944-0.392,3.835-0.536v-32.092h-3.78c-1.084,0-2.227,0.021-3.431,0.055c-0.266,0-0.462,0-0.576,0
					c-1.939,0.038-3.354,0.125-4.25,0.269l-1.159-2.246c2.638,0.356,6.242,0.534,10.814,0.534h6.686
					c2.638-3.353,4.166-5.027,4.594-5.027c0.504,0,1.728,0.872,3.662,2.62c1.936,1.782,2.91,2.854,2.91,3.209
					c0,0.393-0.181,0.587-0.525,0.587h-7.852v13.854c1.437-3.566,2.309-5.35,2.62-5.35c0.499,0,1.86,1.802,4.068,5.404
					c2.054-6.599,3.083-13.552,3.083-20.86c3.023,0.571,5.521,1.07,7.5,1.499c1.937,0.39,2.906,0.783,2.906,1.175
					c0,0.321-0.252,0.553-0.755,0.694c-0.895,0.323-1.341,0.519-1.341,0.589c-0.772,3.174-1.723,6.097-2.847,8.772h6.047
					c2.364-3.243,3.741-4.868,4.128-4.868c0.428,0,1.666,0.855,3.721,2.569c2.096,1.673,3.142,2.69,3.142,3.048
					c0,0.356-0.195,0.533-0.58,0.533h-3.142c-0.349,3.888-1.28,7.97-2.789,12.248c-1.511,4.315-3.182,7.596-5.002,9.841
					c0,0.287,1.278,1.178,3.839,2.675c2.521,1.498,5.369,2.764,8.542,3.798l-0.113,0.748c-1.511,0.144-2.616,1.873-3.313,5.188
					c-0.273,1.144-0.68,1.713-1.222,1.713c-0.894,0-2.793-1.089-5.698-3.263c-2.906-2.212-5.06-4.314-6.455-6.312
					c-4.998,4.421-11.338,7.576-19.01,9.469l-0.58-0.803c7.322-3.317,12.964-7.774,16.915-13.373
					c-1.705-3.314-2.732-8.201-3.082-14.654c0,0.145-0.696,1.034-2.088,2.674c-1.397,1.676-2.541,2.871-3.435,3.584l-0.874-0.588
					C319.235,303.858,319.932,302.254,320.591,300.436z M335.008,292.361h-5.987c-1.047,2.174-1.996,3.993-2.849,5.454
					c0,0.072,0.467,1.677,1.395,4.815c0.933,3.136,1.979,5.543,3.142,7.218C333.303,305.035,334.744,299.207,335.008,292.361z"/>
				<path fill="#282627" d="M363.871,291.8c0-3.602-0.173-6.438-0.521-8.506c3.141,0.678,6.047,1.48,8.721,2.407h14.538
					c-0.428-0.249-0.797-0.715-1.107-1.392c-0.89-2.494-2.574-4.171-5.059-5.027l0.292-0.802c1.24-0.144,2.617-0.213,4.128-0.213
					c5.779,0,8.664,1.479,8.664,4.438c0,1.354-0.6,2.354-1.802,2.995h10.174c2.483-3.245,4.015-4.868,4.595-4.868
					c0.387,0,1.589,0.84,3.604,2.516c2.057,1.674,3.081,2.69,3.081,3.047c0,0.43-0.231,0.643-0.695,0.643h-40.878v9.949
					c0,9.732-1.008,16.723-3.023,20.964c-2.058,4.278-4.767,7.613-8.14,10.002l-0.817-0.481c2.834-5.848,4.245-15.885,4.245-30.11
					V291.8z M379.282,288.323c6.515,1.319,9.768,2.281,9.768,2.887c0,0.287-0.23,0.481-0.696,0.591
					c-1.202,0.284-1.823,0.48-1.861,0.586c-0.041,0-0.175,0.357-0.406,1.07c-1.008,2.96-2.075,5.385-3.199,7.273
					c1.436,0.499,2.151,0.911,2.151,1.23c0,0.286-0.154,0.5-0.465,0.644c-0.814,0.356-1.221,0.693-1.221,1.016v14.866
					c0,0.465,0.097,3.353,0.289,8.667c0,0.926-1.994,1.39-5.988,1.39c-1.163,0-1.742-0.356-1.742-1.07
					c0.15-4.672,0.229-7.933,0.229-9.788v-8.932c-1.511,1.392-3.021,2.567-4.534,3.531l-0.582-0.483
					c1.821-2.672,3.546-6.363,5.176-11.07C377.827,296.024,378.854,291.888,379.282,288.323z M393.934,300.088
					c-3.646,0-6.182,0.107-7.617,0.321l-1.105-2.086c2.364,0.32,5.465,0.479,9.305,0.479h4.36v-2.085
					c0-2.958-0.194-5.578-0.583-7.861c6.592,0.748,9.885,1.355,9.885,1.818c0,0.322-0.193,0.553-0.579,0.694
					c-0.971,0.465-1.453,0.821-1.453,1.072v6.361h0.348c1.476-3.777,2.461-5.668,2.966-5.668c0.349,0,1.221,0.98,2.617,2.941
					c1.394,1.927,2.09,3.067,2.09,3.424c0,0.32-0.134,0.481-0.403,0.481h-7.617v21.715c0,3.459-2.365,5.65-7.098,6.578h-0.058
					c-0.425,0.107-0.795,0.161-1.101,0.161c-0.622,0-0.992-0.268-1.108-0.804c-0.271-1.888-0.697-3.156-1.277-3.796
					c-0.621-0.679-2.306-1.394-5.06-2.14l0.233-1.017c2.017,0.145,3.974,0.214,5.872,0.214c0.312,0,0.6,0,0.874,0
					c0.969,0,1.452-0.41,1.452-1.231v-19.574H393.934z M386.258,304.207l0.582-0.587c2.597,0.428,4.843,1.354,6.744,2.78
					c1.899,1.425,2.848,3.013,2.848,4.76c0,2.498-1.411,3.743-4.242,3.743c-2.057,0-3.081-1.176-3.081-3.528
					C389.067,308.166,388.122,305.777,386.258,304.207z"/>
</svg>